<svg version="1.1"
	 xmlns="http://www.w3.org/2000/svg" xmlns:xlink="http://www.w3.org/1999/xlink" xmlns:a="http://ns.adobe.com/AdobeSVGViewerExtensions/3.0/"
	 x="0px" y="0px" width="48.9px" height="48.2px" viewBox="0 0 48.9 48.2" style="enable-background:new 0 0 48.9 48.2;"
	 xml:space="preserve" fill="white">
<path id="XMLID_16_" d="M43.9,19.1H17.1L27.6,8.5c2-2,2-5.1,0-7.1c-2-2-5.1-2-7.1,0L1.5,20.6c0,0,0,0,0,0c-0.2,0.2-0.4,0.5-0.6,0.7
	c-0.1,0.1-0.1,0.3-0.2,0.4c-0.1,0.2-0.2,0.3-0.2,0.5c-0.1,0.2-0.1,0.3-0.2,0.5c0,0.1-0.1,0.3-0.1,0.4c-0.1,0.6-0.1,1.3,0,2
	c0,0.1,0.1,0.3,0.1,0.4c0.1,0.2,0.1,0.3,0.2,0.5c0.1,0.2,0.2,0.3,0.3,0.5c0.1,0.1,0.1,0.3,0.2,0.4c0.2,0.3,0.4,0.5,0.6,0.8
	l19.1,19.1c1,1,2.3,1.5,3.5,1.5s2.6-0.5,3.5-1.5c2-2,2-5.1,0-7.1L17.1,29.1h26.9c2.8,0,5-2.2,5-5C48.9,21.4,46.7,19.1,43.9,19.1z"/>
</svg>
